<svg version="1.2" xmlns="http://www.w3.org/2000/svg" viewBox="0 0 375 376" width="48" height="48">
	<title>facebook_icon-svg</title>
	<defs>
		<clipPath clipPathUnits="userSpaceOnUse" id="cp1">
			<path d="m75 1h225c41.42 0 75 33.58 75 75v225c0 41.42-33.58 75-75 75h-225c-41.42 0-75-33.58-75-75v-225c0-41.42 33.58-75 75-75z"/>
		</clipPath>
		<clipPath clipPathUnits="userSpaceOnUse" id="cp2">
			<path d="m154.48 122.26h129.75v242.25h-129.75z"/>
		</clipPath>
	</defs>
	<style>
		.s0 { fill: none;stroke: #181818;stroke-width: 48 } 
		.s1 { fill: #181818 } 
	</style>
	<g id="Clip-Path" clip-path="url(#cp1)">
		<g id="Layer">
			<path id="Layer" fill-rule="evenodd" class="s0" d="m75 1h225c41.4 0 75 33.6 75 75v225c0 41.4-33.6 75-75 75h-225c-41.4 0-75-33.6-75-75v-225c0-41.4 33.6-75 75-75z"/>
		</g>
	</g>
	<g id="Clip-Path" clip-path="url(#cp2)">
		<g id="Layer">
			<path id="Layer" class="s1" d="m252 122.3c-34.1 0-54.1 18-54.1 59.1v36.1h-43.4v43.3h43.4v104h43.3v-104h34.6l8.7-43.3h-43.3v-28.8c0-15.5 5-23.1 19.5-23.1h23.8v-41.6c-4.1-0.5-16.1-1.7-32.5-1.7z"/>
		</g>
	</g>
</svg>