<svg version="1.2" xmlns="http://www.w3.org/2000/svg" viewBox="0 0 375 376" width="48" height="48">
	<title>instagram_icon-svg</title>
	<defs>
		<clipPath clipPathUnits="userSpaceOnUse" id="cp1">
			<path d="m75 1h225c41.42 0 75 33.58 75 75v225c0 41.42-33.58 75-75 75h-225c-41.42 0-75-33.58-75-75v-225c0-41.42 33.58-75 75-75z"/>
		</clipPath>
		<clipPath clipPathUnits="userSpaceOnUse" id="cp2">
			<path d="m87.89 88.89h199.21v199.21h-199.21z"/>
		</clipPath>
		<clipPath clipPathUnits="userSpaceOnUse" id="cp3">
			<path d="m187.5 88.89c-55.01 0-99.61 44.6-99.61 99.61 0 55 44.6 99.6 99.61 99.6 55 0 99.6-44.6 99.6-99.6 0-55.01-44.6-99.61-99.6-99.61z"/>
		</clipPath>
		<clipPath clipPathUnits="userSpaceOnUse" id="cp4">
			<path d="m279.16 64.02h35.93v35.93h-35.93z"/>
		</clipPath>
		<clipPath clipPathUnits="userSpaceOnUse" id="cp5">
			<path d="m297.12 64.02c-9.92 0-17.96 8.05-17.96 17.97 0 9.92 8.04 17.96 17.96 17.96 9.92 0 17.97-8.04 17.97-17.96 0-9.92-8.05-17.97-17.97-17.97z"/>
		</clipPath>
	</defs>
	<style>
		.s0 { fill: none;stroke: #181818;stroke-width: 54 } 
		.s1 { fill: #181818 } 
	</style>
	<g id="Clip-Path" clip-path="url(#cp1)">
		<g id="Layer">
			<path id="Layer" fill-rule="evenodd" class="s0" d="m75 1h225c41.4 0 75 33.6 75 75v225c0 41.4-33.6 75-75 75h-225c-41.4 0-75-33.6-75-75v-225c0-41.4 33.6-75 75-75z"/>
		</g>
	</g>
	<g id="Clip-Path" clip-path="url(#cp2)">
		<g id="Layer">
			<g id="Clip-Path" clip-path="url(#cp3)">
				<g id="Layer">
					<path id="Layer" fill-rule="evenodd" class="s0" d="m187.5 88.9c-55 0-99.6 44.6-99.6 99.6 0 55 44.6 99.6 99.6 99.6 55 0 99.6-44.6 99.6-99.6 0-55-44.6-99.6-99.6-99.6z"/>
				</g>
			</g>
		</g>
	</g>
	<g id="Clip-Path" clip-path="url(#cp4)">
		<g id="Layer">
			<g id="Clip-Path" clip-path="url(#cp5)">
				<g id="Layer">
					<path id="Layer" class="s1" d="m279.2 64h35.9v36h-35.9z"/>
				</g>
			</g>
		</g>
	</g>
</svg>