<svg version="1.2" xmlns="http://www.w3.org/2000/svg" viewBox="0 0 375 376" width="48" height="48">
	<title>linkedin_icon-svg</title>
	<defs>
		<clipPath clipPathUnits="userSpaceOnUse" id="cp1">
			<path d="m75 1h225c41.42 0 75 33.58 75 75v225c0 41.42-33.58 75-75 75h-225c-41.42 0-75-33.58-75-75v-225c0-41.42 33.58-75 75-75z"/>
		</clipPath>
	</defs>
	<style>
		.s0 { fill: none;stroke: #181818;stroke-width: 48 } 
		.s1 { fill: #181818 } 
	</style>
	<g id="Clip-Path" clip-path="url(#cp1)">
		<g id="Layer">
			<path id="Layer" fill-rule="evenodd" class="s0" d="m75 1h225c41.4 0 75 33.6 75 75v225c0 41.4-33.6 75-75 75h-225c-41.4 0-75-33.6-75-75v-225c0-41.4 33.6-75 75-75z"/>
		</g>
	</g>
	<g id="Layer">
		<g id="Layer">
			<g id="Layer">
				<path id="Layer" class="s1" d="m122.7 305.9h-33.9v-167.6h33.6zm-17.2-204.1q-9.1 0-15.4-6.4-6.3-6.5-6.3-15.6 0-9.1 6.3-15.4 6.3-6.3 15.4-6.3 9.1 0 15.4 6.3 6.3 6.3 6.3 15.4 0 9.1-6.3 15.6-6.3 6.4-15.4 6.4z"/>
			</g>
		</g>
	</g>
	<g id="Layer">
		<g id="Layer">
			<g id="Layer">
				<path id="Layer" class="s1" d="m194.1 305.9h-33.9v-167.6h26.9l7 14.7q8.4-8.1 20.3-13.3 11.9-5.3 25.9-5.3 9.1 0 20.7 2.8 11.5 2.8 21.5 10.5 10 7.7 16.8 21.4 6.8 13.6 6.8 35.3v101.5h-32.2v-101.8q0-10.9-3.3-18.4-3.3-7.5-8.8-12.1-5.4-4.5-12.2-6.4-6.8-2-14.2-2-5.6 0-12.8 2.1-7.1 2.1-13.4 6.9-6.3 4.7-10.7 11.9-4.4 7.1-4.4 17.6z"/>
			</g>
		</g>
	</g>
</svg>